<?xml version="1.0" standalone="no"?>
<!DOCTYPE svg PUBLIC "-//W3C//DTD SVG 20010904//EN"
 "http://www.w3.org/TR/2001/REC-SVG-20010904/DTD/svg10.dtd">
<svg version="1.0" xmlns="http://www.w3.org/2000/svg"
 width="90.000000pt" height="90.000000pt" viewBox="0 0 90.000000 90.000000"
 preserveAspectRatio="xMidYMid meet">
<metadata>
Created by potrace 1.14, written by Peter Selinger 2001-2017
</metadata>
<g transform="translate(0.000000,90.000000) scale(0.100000,-0.100000)"
fill="#000000" stroke="none">
<path d="M736 780 c-61 -19 -98 -90 -97 -187 0 -72 19 -118 64 -162 l30 -30
-34 -57 c-49 -83 -101 -133 -134 -129 -63 6 -77 60 -69 275 3 91 6 190 7 220
l2 55 -35 3 c-19 1 -41 -2 -49 -7 -7 -4 -26 -66 -42 -137 -55 -245 -135 -419
-187 -409 -10 2 -20 4 -24 4 -3 1 -14 22 -24 47 -19 49 -24 215 -11 324 4 30
10 76 13 102 5 32 2 53 -6 63 -15 18 -74 20 -88 2 -31 -37 -48 -342 -26 -459
26 -136 69 -193 145 -191 69 1 130 58 187 173 l37 74 6 -49 c22 -175 95 -236
214 -179 45 21 131 115 176 192 32 56 35 59 63 51 39 -11 46 -5 46 42 0 32 -3
39 -20 39 -24 0 -24 6 -5 85 29 121 13 210 -44 239 -33 18 -52 19 -95 6z m57
-142 c0 -18 -5 -59 -12 -91 -12 -56 -14 -58 -31 -42 -39 36 -42 154 -4 182 25
18 46 -4 47 -49z"/>
</g>
</svg>
